<?xml version="1.0" encoding="utf-8"?>
<!-- Generator: Adobe Illustrator 22.0.0, SVG Export Plug-In . SVG Version: 6.00 Build 0)  -->
<svg version="1.1" id="Слой_1" xmlns="http://www.w3.org/2000/svg" xmlns:xlink="http://www.w3.org/1999/xlink" x="0px" y="0px"
	 viewBox="0 0 353.7 116.4" style="enable-background:new 0 0 353.7 116.4;" xml:space="preserve">
<style type="text/css">
	.st0{fill:#DBA379;}
	.st1{fill:#F2BF93;}
	.st2{fill:#C7586B;}
	.st3{fill:#E0AE89;}
	.st4{fill:#1E4057;}
</style>
<g>
	<g>
		<polygon class="st0" points="213,0.4 184,35.4 203,33.4 		"/>
		<polygon class="st1" points="184,35.4 209,65.4 230,64.4 203,33.4 		"/>
		<polygon class="st2" points="213,0.4 207,33.4 230,64.4 203,33.4 		"/>
		<polygon class="st3" points="209,65.4 192,94.4 230,64.4 		"/>
		<polyline class="st2" points="192,94.4 195,98.4 229.7,64.1 		"/>
	</g>
	<g>
		<path class="st4" d="M81.8,86.7h-22l-3.7-10.8H26.5l-3.7,10.8h-22l28.3-75.2h24.4L81.8,86.7z M50.8,58.9l-9.6-28.3l-9.6,28.3H50.8
			z"/>
		<path class="st4" d="M113.1,88c-8.6,0-15.7-2.7-21.3-8s-8.5-12.2-8.5-20.7c0-8.4,2.8-15.3,8.5-20.6c5.6-5.3,12.7-8,21.3-8
			c5.4,0,10,1,13.8,2.9c3.8,2,6.6,4.3,8.5,7.1l-11.3,10.5c-2.3-3.5-5.8-5.2-10.3-5.2c-3.7,0-6.7,1.2-9.1,3.6
			c-2.4,2.4-3.6,5.6-3.6,9.6c0,4.1,1.2,7.3,3.6,9.7c2.4,2.4,5.5,3.6,9.1,3.6c4.4,0,7.8-1.8,10.3-5.3L135.4,78
			c-1.9,2.8-4.7,5.2-8.5,7.1C123.1,87.1,118.5,88,113.1,88z"/>
		<path class="st4" d="M164,88c-5.6,0-9.8-1.4-12.7-4.1s-4.3-6.7-4.3-12V47.3h-9V32.2h9V17.3h17.3v14.9h11.1v15.1h-11.1v19.8
			c0,1.7,0.4,3,1.3,4c0.9,1,2,1.5,3.6,1.5c2.2,0,3.6-0.5,4.4-1.4l3.4,13.1C174.3,86.8,170,88,164,88z"/>
		<path class="st4" d="M270.4,86.7h-18.5l-21.4-54.5h18.3L261,66.7l12.4-34.5h18.4L270.4,86.7z"/>
		<path class="st4" d="M323.2,88c-8.6,0-15.7-2.6-21.3-7.8c-5.6-5.2-8.5-12.2-8.5-20.8c0-8,2.7-14.8,8.2-20.3s12.4-8.2,20.8-8.2
			c8.2,0,14.9,2.8,20.1,8.3s7.8,12.9,7.8,22v3.7h-38.8c0.5,2.7,2,5,4.4,6.9s5.5,2.8,9.2,2.8c2.1,0,4.5-0.4,7.3-1.3
			c2.7-0.9,4.8-2,6.3-3.3l7.3,10.8c-2.6,2.3-6,4.1-10.1,5.4C331.8,87.4,327.5,88,323.2,88z M333.7,53.6c-0.3-2.4-1.4-4.6-3.2-6.5
			c-1.8-1.9-4.5-2.9-8.1-2.9c-3.4,0-6,0.9-7.8,2.8c-1.8,1.9-2.9,4.1-3.4,6.5h22.5V53.6z"/>
	</g>
	<g>
		<path class="st4" d="M211.7,114.6h-4.4l-5-12.8h4.3l2.9,8.1l2.9-8.1h4.3L211.7,114.6z"/>
		<path class="st4" d="M221.7,99.9c-0.5,0.5-1,0.7-1.7,0.7s-1.2-0.2-1.7-0.7s-0.7-1-0.7-1.7s0.2-1.2,0.7-1.7s1-0.7,1.7-0.7
			s1.2,0.2,1.7,0.7s0.7,1,0.7,1.7S222.1,99.4,221.7,99.9z M222.1,114.6H218v-12.8h4.1V114.6z"/>
		<path class="st4" d="M229.9,114.9c-1.2,0-2.3-0.2-3.4-0.5c-1.1-0.4-2-0.8-2.6-1.4l1.7-2.8c0.5,0.4,1.2,0.8,2.1,1.2
			c0.9,0.3,1.7,0.5,2.4,0.5c1.2,0,1.7-0.3,1.7-1c0-0.3-0.3-0.5-0.8-0.7c-0.5-0.1-1.1-0.3-1.9-0.4c-0.7-0.1-1.5-0.3-2.2-0.5
			s-1.4-0.6-1.9-1.2s-0.8-1.4-0.8-2.3c0-1.2,0.5-2.2,1.5-3s2.3-1.2,4-1.2c2,0,3.8,0.6,5.4,1.7l-1.6,2.7c-0.4-0.4-1-0.7-1.6-1
			c-0.7-0.3-1.4-0.4-2.1-0.4c-0.5,0-0.9,0.1-1.2,0.3c-0.3,0.2-0.5,0.4-0.5,0.7s0.3,0.5,0.8,0.6s1.1,0.3,1.9,0.4
			c0.7,0.1,1.5,0.3,2.2,0.6s1.4,0.7,1.9,1.3c0.5,0.6,0.8,1.4,0.8,2.4c0,1.3-0.5,2.3-1.6,3.1C233.2,114.5,231.7,114.9,229.9,114.9z"
			/>
		<path class="st4" d="M241.6,99.9c-0.5,0.5-1,0.7-1.7,0.7s-1.2-0.2-1.7-0.7s-0.7-1-0.7-1.7s0.2-1.2,0.7-1.7s1-0.7,1.7-0.7
			s1.2,0.2,1.7,0.7s0.7,1,0.7,1.7S242,99.4,241.6,99.9z M242,114.6h-4.1v-12.8h4.1V114.6z"/>
		<path class="st4" d="M251.1,114.9c-2.1,0-3.8-0.7-5.1-2s-1.9-2.9-1.9-4.8s0.6-3.5,1.9-4.8c1.3-1.3,3-2,5.1-2s3.8,0.7,5.1,2
			c1.3,1.3,1.9,2.9,1.9,4.8s-0.6,3.5-1.9,4.8C254.9,114.2,253.2,114.9,251.1,114.9z M249,110.4c0.5,0.6,1.2,0.9,2,0.9
			c0.9,0,1.6-0.3,2.1-0.9s0.8-1.3,0.8-2.2c0-0.9-0.3-1.6-0.8-2.2s-1.2-0.9-2.1-0.9c-0.9,0-1.5,0.3-2,0.9s-0.7,1.3-0.7,2.2
			C248.3,109,248.6,109.8,249,110.4z"/>
		<path class="st4" d="M273,114.6h-4.1v-7.4c0-1.4-0.7-2.1-2.1-2.1c-1,0-1.8,0.4-2.5,1.2v8.3h-4.1v-12.8h4.1v1.6
			c1.1-1.3,2.6-1.9,4.4-1.9c1.4,0,2.5,0.4,3.2,1.1s1.1,1.7,1.1,3V114.6z"/>
	</g>
</g>
</svg>
